<svg width="32" height="32" viewBox="0 0 32 32" fill="none" xmlns="http://www.w3.org/2000/svg">
<style>
#background { fill: #080A52; }
#logo { fill: #EB2188; }

@media (prefers-color-scheme: dark) {
    /* dark theme styles */
    #background { fill: #EB2188; }
    #logo { fill: #080A52; }
}
</style>

<rect id="background" width="32" height="32"/>
<path id="logo" d="M22.7899 19.8197C22.7899 21.4697 22.0107 22.9516 20.4524 24.2655C18.9246 25.5488 17.2593 26.4655 15.4565 27.0155C13.6843 27.596 12.126 27.8863 10.7815 27.8863C10.6288 27.8863 10.4149 27.703 10.1399 27.3363C9.37599 26.328 8.99405 25.1516 8.99405 23.8072V23.4863C11.3774 23.4863 13.1954 23.0738 14.4482 22.2488C15.701 21.4238 16.3274 20.5683 16.3274 19.6822C16.3274 19.1016 15.9454 18.4905 15.1815 17.8488C14.4177 17.2072 13.5774 16.6419 12.6607 16.153C11.744 15.6641 10.9038 15.0224 10.1399 14.228C9.37599 13.403 8.99405 12.5474 8.99405 11.6613C8.99405 9.79744 10.1552 8.08632 12.4774 6.52799C14.7996 4.96966 17.2746 4.19049 19.9024 4.19049C20.2079 4.19049 20.6052 4.61827 21.094 5.47382C21.5829 6.29882 21.8427 7.15438 21.8732 8.04049C21.2621 8.04049 20.3454 8.22383 19.1232 8.59049C16.7093 9.35438 15.5024 10.3016 15.5024 11.4322C15.5024 12.2266 16.694 13.3113 19.0774 14.6863C19.994 15.2058 20.8343 15.9238 21.5982 16.8405C22.3621 17.7572 22.7593 18.7502 22.7899 19.8197Z"/>
</svg>
