<svg width="105" height="42" viewBox="0 0 105 42" fill="none" xmlns="http://www.w3.org/2000/svg">
<path d="M16.6899 20.6822C16.6899 22.6784 15.7473 24.4712 13.8621 26.0607C12.0138 27.6132 9.99917 28.7222 7.81821 29.3876C5.67421 30.0899 3.78897 30.4411 2.16248 30.4411C1.97766 30.4411 1.7189 30.2193 1.38621 29.7757C0.462069 28.5559 0 27.1327 0 25.5062V25.1181C2.88331 25.1181 5.08276 24.619 6.59835 23.621C8.11393 22.6229 8.87173 21.5879 8.87173 20.5159C8.87173 19.8135 8.40966 19.0742 7.48552 18.2979C6.56138 17.5217 5.54483 16.8378 4.43586 16.2464C3.3269 15.6549 2.31035 14.8786 1.38621 13.9175C0.462069 12.9195 0 11.8844 0 10.8124C0 8.55752 1.40469 6.48745 4.21407 4.60221C7.02345 2.71697 10.0177 1.77435 13.1967 1.77435C13.5663 1.77435 14.0469 2.29186 14.6383 3.3269C15.2298 4.32497 15.544 5.36 15.581 6.432C14.8417 6.432 13.7327 6.6538 12.2541 7.09738C9.3338 8.02152 7.87366 9.16745 7.87366 10.5352C7.87366 11.4963 9.31531 12.8086 12.1986 14.472C13.3076 15.1004 14.3241 15.9691 15.2483 17.0781C16.1724 18.187 16.653 19.3884 16.6899 20.6822Z" fill="#EB2188"/>
<path d="M27.1389 0.166346L27.0835 2.77241C36.9163 2.77241 41.8327 6.57986 41.8327 14.1948C41.8327 16.2648 41.4076 18.1501 40.5574 19.8505C39.7442 21.5139 38.7276 22.8447 37.5077 23.8428C36.2879 24.8039 34.9571 25.6171 33.5155 26.2825C31.0388 27.4284 28.8208 28.0014 26.8617 28.0014V28.8331C26.8617 34.3779 27.0095 38.0745 27.3052 39.9228C26.8247 40.4033 25.993 40.773 24.8101 41.0317C23.6272 41.3275 22.6661 41.4753 21.9268 41.4753C21.1875 41.4753 20.8178 41.4199 20.8178 41.309C20.6699 40.1261 20.596 37.6864 20.596 33.9898L20.8732 8.20635C20.8732 5.17517 20.8178 3.06814 20.7069 1.88524C21.1505 1.44166 21.8898 1.01655 22.9248 0.609932C23.9968 0.203311 24.921 0 25.6973 0C26.4735 0 26.9541 0.0554487 27.1389 0.166346ZM26.8617 19.0742L26.9171 21.8466C29.172 21.8466 31.1497 21.1997 32.8501 19.9059C34.5505 18.6121 35.4007 16.7454 35.4007 14.3057C35.4007 10.3134 32.6098 8.31724 27.028 8.31724L26.9726 9.03807C26.9726 9.51862 26.9726 10.147 26.9726 10.9233L26.8617 19.0742Z" fill="#EB2188"/>
<path d="M59.9093 24.9517L59.8538 23.7873L59.7984 23.6764C58.9112 25.0441 57.7838 26.1346 56.416 26.9479C55.0853 27.7611 53.773 28.1677 52.4792 28.1677C48.5978 28.1677 46.3799 25.155 45.8254 19.1297C45.7515 18.1686 45.7145 15.6919 45.7145 11.6996C45.7145 7.70731 45.8809 5.34152 46.2136 4.60221C47.1747 3.82593 48.7272 3.43779 50.8712 3.43779C51.7214 3.43779 52.2389 3.53021 52.4238 3.71504C52.4238 3.752 52.4053 4.25104 52.3683 5.21214C52.1835 8.02152 52.0911 10.184 52.0911 11.6996C52.0911 13.2152 52.1096 14.3426 52.1465 15.0819C52.1835 15.7843 52.202 16.2463 52.202 16.4681C52.2389 16.653 52.2944 17.0041 52.3683 17.5217C52.4792 18.0392 52.6271 18.4828 52.8119 18.8524C53.3664 19.9244 54.2166 20.4604 55.3625 20.4604C56.5454 20.4604 57.5805 19.8875 58.4676 18.7415C59.3918 17.5586 59.8353 16.7269 59.7984 16.2464V14.3611C59.7984 7.59642 59.9093 3.95531 60.1311 3.43779C60.3159 3.1051 60.8889 2.75393 61.85 2.38428C62.848 2.01462 63.8276 1.82979 64.7887 1.82979C65.7498 1.82979 66.3043 1.90373 66.4522 2.05159L66.3413 4.65766C66.1195 9.94373 66.0086 14.0284 66.0086 16.9117C66.0086 19.795 66.0825 21.6248 66.2304 22.4011C66.4891 24.2494 66.9882 25.728 67.7275 26.837C67.7275 27.2066 66.9697 27.7981 65.4541 28.6113C63.9385 29.4246 62.6447 29.8312 61.5727 29.8312C61.277 29.8312 60.9443 29.2767 60.5747 28.1677C60.205 27.0588 59.9832 25.9868 59.9093 24.9517Z" fill="#EB2188"/>
<path d="M71.7215 19.5732L71.6106 6.98649C71.6106 4.80552 71.6845 3.6411 71.8324 3.49324C72.239 3.08662 72.9414 2.73545 73.9394 2.43972C74.9375 2.10704 75.8616 1.94069 76.7118 1.94069C77.599 1.94069 78.0426 2.03311 78.0426 2.21793C77.9317 3.216 77.8763 4.36193 77.8763 5.65573C77.8763 6.91255 77.9132 7.54097 77.9872 7.54097C78.0611 7.54097 78.135 7.504 78.2089 7.43007C78.2829 7.31917 78.3938 7.17131 78.5416 6.98649C78.7265 6.76469 79.0776 6.39504 79.5952 5.87752C80.1496 5.36 80.7411 4.91642 81.3695 4.54676C82.959 3.51173 84.6594 2.99421 86.4707 2.99421C86.7665 3.47476 86.9143 4.21407 86.9143 5.21214C86.9143 7.31918 86.6556 8.81628 86.138 9.70345L85.9163 10.147L85.1954 10.0361C82.5339 10.0361 80.4454 11.1266 78.9298 13.3076C78.3383 14.1948 78.0426 14.8601 78.0426 15.3037V20.1832C78.0426 24.619 77.9871 26.8924 77.8763 27.0033C76.8412 28.0014 74.8081 28.5004 71.7769 28.5004C71.4812 28.5004 71.3334 28.445 71.3334 28.3341C71.5921 26.8924 71.7215 23.9721 71.7215 19.5732Z" fill="#EB2188"/>
<path d="M89.8072 19.5732L89.6963 6.98649C89.6963 4.80552 89.7702 3.6411 89.9181 3.49324C90.3247 3.08662 91.027 2.73545 92.0251 2.43972C93.0232 2.10704 93.9473 1.94069 94.7975 1.94069C95.6847 1.94069 96.1283 2.03311 96.1283 2.21793C96.0174 3.216 95.9619 4.36193 95.9619 5.65573C95.9619 6.91255 95.9989 7.54097 96.0728 7.54097C96.1468 7.54097 96.2207 7.504 96.2946 7.43007C96.3685 7.31917 96.4794 7.17131 96.6273 6.98649C96.8121 6.76469 97.1633 6.39504 97.6808 5.87752C98.2353 5.36 98.8268 4.91642 99.4552 4.54676C101.045 3.51173 102.745 2.99421 104.556 2.99421C104.852 3.47476 105 4.21407 105 5.21214C105 7.31918 104.741 8.81628 104.224 9.70345L104.002 10.147L103.281 10.0361C100.62 10.0361 98.531 11.1266 97.0154 13.3076C96.424 14.1948 96.1283 14.8601 96.1283 15.3037V20.1832C96.1283 24.619 96.0728 26.8924 95.9619 27.0033C94.9269 28.0014 92.8938 28.5004 89.8626 28.5004C89.5669 28.5004 89.419 28.445 89.419 28.3341C89.6778 26.8924 89.8072 23.9721 89.8072 19.5732Z" fill="#080A52"/>
</svg>
